<svg id="visual" viewBox="0 0 900 600" width="900" height="600" xmlns="http://www.w3.org/2000/svg" xmlns:xlink="http://www.w3.org/1999/xlink" version="1.1"><path d="M0 85L82 79L164 61L245 91L327 133L409 61L491 49L573 85L655 139L736 139L818 157L900 79L900 0L818 0L736 0L655 0L573 0L491 0L409 0L327 0L245 0L164 0L82 0L0 0Z" fill="#00cc8e"></path><path d="M0 301L82 193L164 307L245 193L327 355L409 205L491 277L573 211L655 319L736 385L818 397L900 217L900 77L818 155L736 137L655 137L573 83L491 47L409 59L327 131L245 89L164 59L82 77L0 83Z" fill="#00b98a"></path><path d="M0 421L82 247L164 385L245 241L327 457L409 295L491 385L573 325L655 361L736 427L818 445L900 319L900 215L818 395L736 383L655 317L573 209L491 275L409 203L327 353L245 191L164 305L82 191L0 299Z" fill="#00a784"></path><path d="M0 505L82 331L164 475L245 337L327 511L409 397L491 463L573 409L655 463L736 523L818 493L900 385L900 317L818 443L736 425L655 359L573 323L491 383L409 293L327 455L245 239L164 383L82 245L0 419Z" fill="#00957c"></path><path d="M0 601L82 601L164 601L245 601L327 601L409 601L491 601L573 601L655 601L736 601L818 601L900 601L900 383L818 491L736 521L655 461L573 407L491 461L409 395L327 509L245 335L164 473L82 329L0 503Z" fill="#038373"></path></svg>