<svg id="visual" viewBox="0 0 900 600" width="900" height="600" xmlns="http://www.w3.org/2000/svg" xmlns:xlink="http://www.w3.org/1999/xlink" version="1.1"><g stroke-width="1" stroke-linejoin="bevel"><path d="M379 280L411 210L319 165Z" fill="#246688" stroke="#246688"></path><path d="M319 165L299 322L379 280Z" fill="#277297" stroke="#277297"></path><path d="M411 210L415 114L319 165Z" fill="#081a28" stroke="#081a28"></path><path d="M177 90L199 209L319 165Z" fill="#15384f" stroke="#15384f"></path><path d="M319 165L199 209L299 322Z" fill="#246688" stroke="#246688"></path><path d="M299 322L372 381L379 280Z" fill="#112e42" stroke="#112e42"></path><path d="M379 280L511 231L411 210Z" fill="#15384f" stroke="#15384f"></path><path d="M524 330L511 231L379 280Z" fill="#1d4e6b" stroke="#1d4e6b"></path><path d="M411 210L511 231L415 114Z" fill="#297ea6" stroke="#297ea6"></path><path d="M415 114L295 68L319 165Z" fill="#19435d" stroke="#19435d"></path><path d="M199 209L188 268L299 322Z" fill="#0c2435" stroke="#0c2435"></path><path d="M299 322L309 406L372 381Z" fill="#246688" stroke="#246688"></path><path d="M188 268L237 369L299 322Z" fill="#081a28" stroke="#081a28"></path><path d="M237 369L309 406L299 322Z" fill="#0c2435" stroke="#0c2435"></path><path d="M502 384L379 280L372 381Z" fill="#205a7a" stroke="#205a7a"></path><path d="M502 384L524 330L379 280Z" fill="#081a28" stroke="#081a28"></path><path d="M295 68L177 90L319 165Z" fill="#081a28" stroke="#081a28"></path><path d="M199 209L99 262L188 268Z" fill="#205a7a" stroke="#205a7a"></path><path d="M438 476L502 384L372 381Z" fill="#277297" stroke="#277297"></path><path d="M511 231L531 94L415 114Z" fill="#19435d" stroke="#19435d"></path><path d="M418 0L305 0L295 68Z" fill="#112e42" stroke="#112e42"></path><path d="M564 127L531 94L511 231Z" fill="#297ea6" stroke="#297ea6"></path><path d="M418 0L295 68L415 114Z" fill="#0c2435" stroke="#0c2435"></path><path d="M295 68L223 0L177 90Z" fill="#0c2435" stroke="#0c2435"></path><path d="M614 262L573 163L511 231Z" fill="#112e42" stroke="#112e42"></path><path d="M506 0L418 0L415 114Z" fill="#205a7a" stroke="#205a7a"></path><path d="M573 163L564 127L511 231Z" fill="#277297" stroke="#277297"></path><path d="M87 204L99 262L199 209Z" fill="#15384f" stroke="#15384f"></path><path d="M188 268L130 381L237 369Z" fill="#00101c" stroke="#00101c"></path><path d="M196 523L323 476L309 406Z" fill="#297ea6" stroke="#297ea6"></path><path d="M309 406L323 476L372 381Z" fill="#081a28" stroke="#081a28"></path><path d="M196 523L309 406L237 369Z" fill="#277297" stroke="#277297"></path><path d="M305 0L223 0L295 68Z" fill="#297ea6" stroke="#297ea6"></path><path d="M114 79L87 204L177 90Z" fill="#297ea6" stroke="#297ea6"></path><path d="M177 90L87 204L199 209Z" fill="#0c2435" stroke="#0c2435"></path><path d="M323 476L438 476L372 381Z" fill="#0c2435" stroke="#0c2435"></path><path d="M99 262L130 381L188 268Z" fill="#0c2435" stroke="#0c2435"></path><path d="M524 330L614 262L511 231Z" fill="#0c2435" stroke="#0c2435"></path><path d="M700 113L599 0L564 127Z" fill="#297ea6" stroke="#297ea6"></path><path d="M668 411L614 262L524 330Z" fill="#297ea6" stroke="#297ea6"></path><path d="M597 435L524 330L502 384Z" fill="#19435d" stroke="#19435d"></path><path d="M599 0L506 0L531 94Z" fill="#081a28" stroke="#081a28"></path><path d="M531 94L506 0L415 114Z" fill="#112e42" stroke="#112e42"></path><path d="M223 0L114 79L177 90Z" fill="#081a28" stroke="#081a28"></path><path d="M438 476L526 469L502 384Z" fill="#297ea6" stroke="#297ea6"></path><path d="M526 469L597 435L502 384Z" fill="#246688" stroke="#246688"></path><path d="M124 485L196 523L237 369Z" fill="#112e42" stroke="#112e42"></path><path d="M323 476L430 600L438 476Z" fill="#081a28" stroke="#081a28"></path><path d="M469 600L578 521L526 469Z" fill="#297ea6" stroke="#297ea6"></path><path d="M700 113L564 127L573 163Z" fill="#1d4e6b" stroke="#1d4e6b"></path><path d="M564 127L599 0L531 94Z" fill="#297ea6" stroke="#297ea6"></path><path d="M130 381L124 485L237 369Z" fill="#205a7a" stroke="#205a7a"></path><path d="M0 413L124 485L130 381Z" fill="#277297" stroke="#277297"></path><path d="M0 327L130 381L99 262Z" fill="#246688" stroke="#246688"></path><path d="M223 0L85 0L114 79Z" fill="#1d4e6b" stroke="#1d4e6b"></path><path d="M0 84L0 190L87 204Z" fill="#297ea6" stroke="#297ea6"></path><path d="M0 84L87 204L114 79Z" fill="#15384f" stroke="#15384f"></path><path d="M87 204L0 190L99 262Z" fill="#19435d" stroke="#19435d"></path><path d="M0 190L0 327L99 262Z" fill="#00101c" stroke="#00101c"></path><path d="M668 411L704 317L614 262Z" fill="#19435d" stroke="#19435d"></path><path d="M732 216L700 113L573 163Z" fill="#246688" stroke="#246688"></path><path d="M732 216L573 163L614 262Z" fill="#205a7a" stroke="#205a7a"></path><path d="M703 487L668 411L597 435Z" fill="#246688" stroke="#246688"></path><path d="M597 435L668 411L524 330Z" fill="#246688" stroke="#246688"></path><path d="M85 0L0 84L114 79Z" fill="#277297" stroke="#277297"></path><path d="M469 600L526 469L438 476Z" fill="#0c2435" stroke="#0c2435"></path><path d="M526 469L578 521L597 435Z" fill="#1d4e6b" stroke="#1d4e6b"></path><path d="M166 600L322 600L196 523Z" fill="#00101c" stroke="#00101c"></path><path d="M196 523L322 600L323 476Z" fill="#1d4e6b" stroke="#1d4e6b"></path><path d="M704 317L732 216L614 262Z" fill="#19435d" stroke="#19435d"></path><path d="M322 600L430 600L323 476Z" fill="#081a28" stroke="#081a28"></path><path d="M821 0L674 0L700 113Z" fill="#205a7a" stroke="#205a7a"></path><path d="M700 113L674 0L599 0Z" fill="#00101c" stroke="#00101c"></path><path d="M430 600L469 600L438 476Z" fill="#15384f" stroke="#15384f"></path><path d="M0 327L0 413L130 381Z" fill="#19435d" stroke="#19435d"></path><path d="M124 485L166 600L196 523Z" fill="#15384f" stroke="#15384f"></path><path d="M85 0L0 0L0 84Z" fill="#246688" stroke="#246688"></path><path d="M93 600L166 600L124 485Z" fill="#246688" stroke="#246688"></path><path d="M774 279L768 197L732 216Z" fill="#246688" stroke="#246688"></path><path d="M732 216L768 197L700 113Z" fill="#1d4e6b" stroke="#1d4e6b"></path><path d="M774 279L732 216L704 317Z" fill="#297ea6" stroke="#297ea6"></path><path d="M815 391L774 279L704 317Z" fill="#19435d" stroke="#19435d"></path><path d="M0 413L0 488L124 485Z" fill="#19435d" stroke="#19435d"></path><path d="M578 521L703 487L597 435Z" fill="#0c2435" stroke="#0c2435"></path><path d="M668 411L815 391L704 317Z" fill="#246688" stroke="#246688"></path><path d="M623 600L703 487L578 521Z" fill="#277297" stroke="#277297"></path><path d="M0 488L93 600L124 485Z" fill="#112e42" stroke="#112e42"></path><path d="M469 600L623 600L578 521Z" fill="#277297" stroke="#277297"></path><path d="M900 190L826 112L768 197Z" fill="#246688" stroke="#246688"></path><path d="M768 197L826 112L700 113Z" fill="#277297" stroke="#277297"></path><path d="M791 529L815 391L703 487Z" fill="#15384f" stroke="#15384f"></path><path d="M703 487L815 391L668 411Z" fill="#00101c" stroke="#00101c"></path><path d="M774 279L900 190L768 197Z" fill="#00101c" stroke="#00101c"></path><path d="M623 600L674 600L703 487Z" fill="#277297" stroke="#277297"></path><path d="M0 488L0 600L93 600Z" fill="#297ea6" stroke="#297ea6"></path><path d="M826 112L821 0L700 113Z" fill="#277297" stroke="#277297"></path><path d="M674 600L791 529L703 487Z" fill="#15384f" stroke="#15384f"></path><path d="M900 294L900 190L774 279Z" fill="#277297" stroke="#277297"></path><path d="M826 112L900 0L821 0Z" fill="#19435d" stroke="#19435d"></path><path d="M900 294L774 279L815 391Z" fill="#1d4e6b" stroke="#1d4e6b"></path><path d="M900 368L900 294L815 391Z" fill="#1d4e6b" stroke="#1d4e6b"></path><path d="M900 190L900 126L826 112Z" fill="#00101c" stroke="#00101c"></path><path d="M900 536L900 368L815 391Z" fill="#297ea6" stroke="#297ea6"></path><path d="M900 126L900 0L826 112Z" fill="#1d4e6b" stroke="#1d4e6b"></path><path d="M674 600L827 600L791 529Z" fill="#081a28" stroke="#081a28"></path><path d="M791 529L900 536L815 391Z" fill="#246688" stroke="#246688"></path><path d="M827 600L900 536L791 529Z" fill="#081a28" stroke="#081a28"></path><path d="M827 600L900 600L900 536Z" fill="#277297" stroke="#277297"></path></g></svg>