<svg id="visual" viewBox="0 0 900 600" width="900" height="600" xmlns="http://www.w3.org/2000/svg" xmlns:xlink="http://www.w3.org/1999/xlink" version="1.1"><path d="M0 73L13.7 79C27.3 85 54.7 97 82 93C109.3 89 136.7 69 163.8 67C191 65 218 81 245.2 85C272.3 89 299.7 81 327 83C354.3 85 381.7 97 409 104C436.3 111 463.7 113 491 107C518.3 101 545.7 87 573 80C600.3 73 627.7 73 654.8 69C682 65 709 57 736.2 67C763.3 77 790.7 105 818 114C845.3 123 872.7 113 886.3 108L900 103L900 0L886.3 0C872.7 0 845.3 0 818 0C790.7 0 763.3 0 736.2 0C709 0 682 0 654.8 0C627.7 0 600.3 0 573 0C545.7 0 518.3 0 491 0C463.7 0 436.3 0 409 0C381.7 0 354.3 0 327 0C299.7 0 272.3 0 245.2 0C218 0 191 0 163.8 0C136.7 0 109.3 0 82 0C54.7 0 27.3 0 13.7 0L0 0Z" fill="#ff9e92"></path><path d="M0 109L13.7 121C27.3 133 54.7 157 82 163C109.3 169 136.7 157 163.8 158C191 159 218 173 245.2 170C272.3 167 299.7 147 327 146C354.3 145 381.7 163 409 170C436.3 177 463.7 173 491 172C518.3 171 545.7 173 573 169C600.3 165 627.7 155 654.8 143C682 131 709 117 736.2 122C763.3 127 790.7 151 818 164C845.3 177 872.7 179 886.3 180L900 181L900 101L886.3 106C872.7 111 845.3 121 818 112C790.7 103 763.3 75 736.2 65C709 55 682 63 654.8 67C627.7 71 600.3 71 573 78C545.7 85 518.3 99 491 105C463.7 111 436.3 109 409 102C381.7 95 354.3 83 327 81C299.7 79 272.3 87 245.2 83C218 79 191 63 163.8 65C136.7 67 109.3 87 82 91C54.7 95 27.3 83 13.7 77L0 71Z" fill="#ff8779"></path><path d="M0 385L13.7 366C27.3 347 54.7 309 82 294C109.3 279 136.7 287 163.8 295C191 303 218 311 245.2 308C272.3 305 299.7 291 327 298C354.3 305 381.7 333 409 335C436.3 337 463.7 313 491 325C518.3 337 545.7 385 573 385C600.3 385 627.7 337 654.8 310C682 283 709 277 736.2 298C763.3 319 790.7 367 818 376C845.3 385 872.7 355 886.3 340L900 325L900 179L886.3 178C872.7 177 845.3 175 818 162C790.7 149 763.3 125 736.2 120C709 115 682 129 654.8 141C627.7 153 600.3 163 573 167C545.7 171 518.3 169 491 170C463.7 171 436.3 175 409 168C381.7 161 354.3 143 327 144C299.7 145 272.3 165 245.2 168C218 171 191 157 163.8 156C136.7 155 109.3 167 82 161C54.7 155 27.3 131 13.7 119L0 107Z" fill="#ff6f61"></path><path d="M0 511L13.7 491C27.3 471 54.7 431 82 412C109.3 393 136.7 395 163.8 407C191 419 218 441 245.2 439C272.3 437 299.7 411 327 416C354.3 421 381.7 457 409 466C436.3 475 463.7 457 491 455C518.3 453 545.7 467 573 460C600.3 453 627.7 425 654.8 419C682 413 709 429 736.2 449C763.3 469 790.7 493 818 492C845.3 491 872.7 465 886.3 452L900 439L900 323L886.3 338C872.7 353 845.3 383 818 374C790.7 365 763.3 317 736.2 296C709 275 682 281 654.8 308C627.7 335 600.3 383 573 383C545.7 383 518.3 335 491 323C463.7 311 436.3 335 409 333C381.7 331 354.3 303 327 296C299.7 289 272.3 303 245.2 306C218 309 191 301 163.8 293C136.7 285 109.3 277 82 292C54.7 307 27.3 345 13.7 364L0 383Z" fill="#e15d50"></path><path d="M0 601L13.7 601C27.3 601 54.7 601 82 601C109.3 601 136.7 601 163.8 601C191 601 218 601 245.2 601C272.3 601 299.7 601 327 601C354.3 601 381.7 601 409 601C436.3 601 463.7 601 491 601C518.3 601 545.7 601 573 601C600.3 601 627.7 601 654.8 601C682 601 709 601 736.2 601C763.3 601 790.7 601 818 601C845.3 601 872.7 601 886.3 601L900 601L900 437L886.3 450C872.7 463 845.3 489 818 490C790.7 491 763.3 467 736.2 447C709 427 682 411 654.8 417C627.7 423 600.3 451 573 458C545.7 465 518.3 451 491 453C463.7 455 436.3 473 409 464C381.7 455 354.3 419 327 414C299.7 409 272.3 435 245.2 437C218 439 191 417 163.8 405C136.7 393 109.3 391 82 410C54.7 429 27.3 469 13.7 489L0 509Z" fill="#c44c40"></path></svg>